<svg role="img" viewBox="0 0 24 24" xmlns="http://www.w3.org/2000/svg" id="Vaultwarden--Streamline-Simple-Icons.svg" height="24" width="24"><desc>Vaultwarden Streamline Icon: https://streamlinehq.com</desc><title>Vaultwarden</title><path d="M11.5405 0.4477c-0.143 0.2381 -0.3334 0.5239 -0.4382 0.6286 -0.1715 0.181 -0.181 0.1715 -0.7334 -0.3715 -0.6667 -0.6666 -0.7715 -0.6476 -1.086 0.2096 -0.1332 0.3524 -0.295 0.6 -0.4285 0.6762 -0.1905 0.0953 -0.2856 0.0667 -0.7619 -0.2761 -0.8001 -0.562 -0.9429 -0.4763 -1.0954 0.619 -0.038 0.2763 -0.1143 0.4763 -0.2095 0.5144 -0.0762 0.0286 -0.4 -0.0667 -0.7049 -0.219 -0.781 -0.3716 -0.8953 -0.2858 -0.9048 0.619 0 0.3715 -0.0476 0.7238 -0.0952 0.7715 -0.0667 0.0667 -0.3144 0.0476 -0.781 -0.0666 -0.9144 -0.2191 -0.9716 -0.162 -0.7525 0.7524 0.1142 0.4667 0.1333 0.7144 0.0666 0.781 -0.0476 0.0477 -0.4 0.0953 -0.7715 0.0953 -0.9143 0.0095 -0.9906 0.1238 -0.6095 0.9049 0.3714 0.781 0.2762 1.0096 -0.4477 1.1049 -1.0669 0.1523 -1.1335 0.2857 -0.543 1.0762 0.4763 0.6286 0.4477 0.724 -0.3429 1.0096 -0.8476 0.324 -0.8667 0.4286 -0.2 1.0954 0.543 0.5524 0.5525 0.562 0.3715 0.7334 -0.1047 0.1048 -0.3905 0.2953 -0.6286 0.4382 -0.5906 0.3428 -0.5906 0.5714 0 0.9143 0.2381 0.143 0.5239 0.3333 0.6286 0.4381 0.181 0.1715 0.1715 0.181 -0.3715 0.7335 -0.6667 0.6667 -0.6476 0.7715 0.2096 1.0859 0.3525 0.1332 0.6 0.2951 0.6762 0.4285 0.0953 0.1905 0.0667 0.2857 -0.2761 0.762 -0.562 0.8 -0.4763 0.9428 0.6191 1.0953 0.2762 0.038 0.4762 0.1143 0.5143 0.2095 0.0286 0.0763 -0.0666 0.4 -0.219 0.705 -0.3716 0.7809 -0.2858 0.8953 0.619 0.9048 0.3715 0 0.724 0.0476 0.7715 0.0951 0.0667 0.0667 0.0476 0.3144 -0.0666 0.7812 -0.219 0.9143 -0.162 0.9715 0.7524 0.7524 0.4667 -0.1143 0.7144 -0.1334 0.7811 -0.0667 0.0476 0.0476 0.0952 0.4 0.0952 0.7715 0.0095 0.9144 0.1239 0.9906 0.9049 0.6096 0.781 -0.3715 1.0096 -0.2762 1.1049 0.4476 0.1524 1.067 0.2857 1.1335 1.0762 0.543 0.6286 -0.4763 0.724 -0.4477 1.0097 0.343 0.3238 0.8476 0.419 0.8667 1.1049 0.1903 0.6666 -0.6476 0.6095 -0.6571 1.1619 0.2763 0.343 0.581 0.5715 0.581 0.9145 0 0.5523 -0.9334 0.4952 -0.924 1.1619 -0.2763 0.6859 0.6764 0.781 0.6573 1.0954 -0.2 0.1333 -0.3523 0.2952 -0.6 0.4286 -0.6762 0.1905 -0.0953 0.2858 -0.0667 0.762 0.2762 0.8 0.562 0.943 0.4762 1.0953 -0.619 0.0381 -0.2763 0.1143 -0.4763 0.2096 -0.5144 0.0762 -0.0286 0.4 0.0666 0.7048 0.219 0.781 0.3715 0.8954 0.2857 0.905 -0.619 0 -0.3715 0.0474 -0.724 0.0951 -0.7716 0.0667 -0.0667 0.3143 -0.0476 0.781 0.0667 0.9145 0.219 0.9716 0.162 0.7525 -0.7524 -0.1143 -0.4668 -0.1333 -0.7145 -0.0667 -0.7812 0.0477 -0.0475 0.4 -0.0951 0.7715 -0.0951 0.9144 -0.0095 0.9906 -0.1238 0.6097 -0.905 -0.3715 -0.7809 -0.2763 -1.0096 0.4476 -1.1048 1.0667 -0.1523 1.1334 -0.2857 0.543 -1.0762 -0.4763 -0.6287 -0.4478 -0.724 0.3428 -1.0097 0.8477 -0.3238 0.8668 -0.419 0.1905 -1.105 -0.6477 -0.6666 -0.6572 -0.6095 0.2762 -1.1618 0.2953 -0.181 0.4382 -0.324 0.4382 -0.4573 0 -0.1334 -0.143 -0.2763 -0.4382 -0.4571 -0.9334 -0.5525 -0.924 -0.4954 -0.2762 -1.1621 0.6763 -0.6858 0.6572 -0.781 -0.2 -1.0953 -0.3524 -0.1334 -0.6001 -0.2953 -0.6763 -0.4287 -0.0952 -0.1905 -0.0667 -0.2857 0.2763 -0.7619 0.562 -0.8001 0.4761 -0.9429 -0.6192 -1.0954 -0.2762 -0.038 -0.4762 -0.1143 -0.5143 -0.2096 -0.0286 -0.0762 0.0667 -0.4 0.219 -0.7048 0.3715 -0.781 0.2858 -0.8953 -0.619 -0.905 -0.3715 0 -0.7239 -0.0474 -0.7716 -0.0951 -0.0666 -0.0666 -0.0476 -0.3143 0.0667 -0.781 0.219 -0.9143 0.162 -0.9715 -0.7524 -0.7524 -0.4668 0.1142 -0.7144 0.1333 -0.781 0.0666 -0.0478 -0.0477 -0.0953 -0.4 -0.0953 -0.7715 -0.0095 -0.9144 -0.1238 -0.9906 -0.905 -0.6096 -0.7809 0.3714 -1.0095 0.2763 -1.1047 -0.4477 -0.1524 -1.0667 -0.2858 -1.1334 -1.0763 -0.543 -0.6287 0.4764 -0.724 0.4478 -1.0096 -0.3428 -0.324 -0.8476 -0.4287 -0.8667 -1.0954 -0.2 -0.5525 0.543 -0.562 0.5525 -0.7335 0.3715 -0.1047 -0.1048 -0.2952 -0.3905 -0.438 -0.6286C12.2739 0.1429 12.1309 0 11.9976 0c-0.1333 0 -0.2761 0.1429 -0.4571 0.4477zm0.9334 1.9335c0.1048 0.1048 0.1905 0.3143 0.1905 0.4762 0 0.162 -0.0857 0.3715 -0.1905 0.4763 -0.4096 0.4095 -1.143 0.1048 -1.143 -0.4763 0 -0.362 0.3048 -0.6667 0.6667 -0.6667 0.162 0 0.3715 0.0857 0.4763 0.1905zM11.007 4.0004c0.924 0.8953 1.0573 0.8953 1.9812 0l0.6858 -0.6667 0.6667 0.1905c0.762 0.2095 1.9431 0.7143 1.9431 0.8382 0 0.038 -0.8953 2.6287 -1.9907 5.7434 -1.0953 3.1146 -2.0478 5.8386 -2.105 6.0577 -0.0666 0.2286 -0.1524 0.4096 -0.1905 0.4096 -0.038 0 -0.1143 -0.162 -0.162 -0.3524 -0.057 -0.2 -1 -2.9432 -2.1049 -6.1054 -1.1143 -3.1622 -2.0192 -5.772 -2.0192 -5.791 0 -0.1143 2.1145 -0.9334 2.5622 -0.9811 0.0285 -0.0095 0.3524 0.2857 0.7333 0.6572zm-3.3432 9.601c1.3526 3.7908 2.4288 6.9054 2.4003 6.934 -0.0667 0.0762 -1.0763 -0.219 -1.5048 -0.4477 -0.343 -0.1715 -0.3525 -0.1905 -0.4763 -1 -0.0763 -0.524 -0.1906 -0.905 -0.3049 -1.0573 -0.1904 -0.2381 -0.219 -0.2381 -0.8667 -0.1715 -1.4287 0.162 -1.3715 0.181 -1.9335 -0.5714 -0.6096 -0.8096 -1.181 -1.9431 -1.4573 -2.9051 -0.162 -0.5334 -0.219 -1.0668 -0.2571 -2.0954l-0.0477 -1.3812 0.8572 -0.4571c1.1525 -0.6 1.181 -0.7049 0.5905 -1.8764 -0.4285 -0.8477 -0.4285 -0.8 0.124 -1.6002 0.1523 -0.2286 0.3142 -0.381 0.3523 -0.3334 0.038 0.0381 1.1716 3.1717 2.524 6.9627Zm11.8203 -6.2101 0.2382 0.4 -0.3906 0.7715c-0.5905 1.181 -0.562 1.2858 0.581 1.8859l0.8478 0.4476v1.0763c0 1.2478 -0.1715 2.2193 -0.581 3.2575 -0.3144 0.7905 -0.943 1.8383 -1.448 2.4288l-0.3237 0.381 -0.7524 -0.1143c-0.4096 -0.0666 -0.8668 -0.1142 -1.0096 -0.1142 -0.4 0 -0.6002 0.3523 -0.7335 1.2858l-0.1238 0.8286 -0.5048 0.219c-0.581 0.2573 -1.2859 0.4668 -1.3526 0.3906 -0.038 -0.038 4.01 -11.5249 4.8482 -13.7728l0.0952 -0.2381 0.1905 0.2381c0.1048 0.1238 0.2953 0.4096 0.419 0.6287zM3.7586 8.715c0.4478 0.4382 0.181 1.0954 -0.4475 1.0954 -0.4 0 -0.6478 -0.2381 -0.6478 -0.6286 0 -0.6286 0.6573 -0.9144 1.0954 -0.4668zm17.221 -0.1332c0.2761 0.1523 0.3523 0.2666 0.3523 0.5999 0 0.381 -0.2477 0.6287 -0.6381 0.6287 -0.6382 0 -0.9144 -0.6477 -0.4573 -1.0954 0.2572 -0.2666 0.4287 -0.2952 0.743 -0.1332zM7.2352 19.1543c0.3429 0.8191 -0.8287 1.3239 -1.2097 0.5144 -0.1429 -0.2953 -0.1429 -0.343 0.0095 -0.5716 0.3239 -0.4952 0.9906 -0.4666 1.2 0.0572zm10.563 -0.2572c0.238 0.1905 0.3047 0.524 0.1523 0.8192 -0.3905 0.7619 -1.524 0.219 -1.1905 -0.562 0.1713 -0.4286 0.6667 -0.5524 1.0382 -0.2572z" fill="#000000" stroke-width="1"></path></svg>